<svg width="200" height="200" viewBox="0 0 200 200" fill="none" xmlns="http://www.w3.org/2000/svg">
<g clip-path="url(#clip0_132_3)">
<path fill-rule="evenodd" clip-rule="evenodd" d="M0.00146484 100C0.00146484 72.408 11.1963 47.4119 29.3002 29.3106L37.6378 58.3262L7.61183 61.7314L26.43 85.3664L0.00146484 100ZM29.3131 29.2963C47.4169 11.1989 72.404 0.000244141 100.001 0.000244141L85.365 26.4301L61.7287 7.61191L58.3261 37.6301L29.3131 29.2963ZM100.001 0.000244141C127.599 0.000244141 152.586 11.1989 170.69 29.2963L141.677 37.6301L138.274 7.61191L114.638 26.4301L100.001 0.000244141ZM170.703 29.3106C188.806 47.4119 200.001 72.408 200.001 100L173.573 85.3664L192.391 61.7314L162.378 58.3262L170.703 29.3106ZM200.001 100C200.001 127.592 188.806 152.588 170.703 170.69L162.378 141.674L192.391 138.269L173.573 114.634L200.001 100ZM170.69 170.704C152.586 188.801 127.599 200 100.001 200L114.638 173.57L138.274 192.388L141.677 162.37L170.69 170.704ZM100.001 200C72.404 200 47.4169 188.801 29.3131 170.704L58.3261 162.37L61.7287 192.388L85.365 173.57L100.001 200ZM29.3002 170.69C11.1963 152.588 0.00146484 127.592 0.00146484 100L26.43 114.634L7.61183 138.269L37.6378 141.674L29.3002 170.69ZM37.6378 58.3262L61.1054 61.1093L58.3261 37.6301L78.9495 49.182C65.5079 54.7599 54.7546 65.5106 49.1832 78.943L37.6378 58.3262ZM26.43 85.3664L49.1832 78.956C46.4819 85.4391 45.0015 92.5482 45.0015 100L26.43 85.3664ZM26.43 114.634L45.0015 100C45.0015 107.452 46.4819 114.561 49.1832 121.044L26.43 114.634ZM85.365 26.4301L100.001 45.0002C92.5468 45.0002 85.443 46.4859 78.9625 49.1768L85.365 26.4301ZM100.001 45.0002L114.638 26.4301L121.04 49.1768C114.56 46.4859 107.456 45.0002 100.001 45.0002ZM141.677 37.6301L138.897 61.1093L162.378 58.3262L150.819 78.943C145.248 65.5106 134.495 54.7599 121.053 49.182L141.677 37.6301ZM173.573 85.3664L155.001 100C155.001 92.5482 153.521 85.4391 150.819 78.956L173.573 85.3664ZM155.001 100L173.573 114.634L150.819 121.044C153.521 114.561 155.001 107.452 155.001 100ZM162.378 141.674L138.897 138.891L141.677 162.37L121.053 150.818C134.495 145.24 145.248 134.49 150.819 121.057L162.378 141.674ZM114.638 173.57L100.001 155C107.456 155 114.56 153.514 121.04 150.823L114.638 173.57ZM100.001 155L85.365 173.57L78.9625 150.823C85.443 153.514 92.5468 155 100.001 155ZM58.3261 162.37L61.1054 138.891L37.6378 141.674L49.1832 121.057C54.7546 134.49 65.5079 145.24 78.9495 150.818L58.3261 162.37Z"/>
<path fill-rule="evenodd" clip-rule="evenodd" d="M78.9465 49.1815C78.9512 49.1796 78.9548 49.1781 78.9594 49.1762L78.9564 49.1871L78.9465 49.1815Z"/>
<path fill-rule="evenodd" clip-rule="evenodd" d="M29.3153 29.2957L29.2998 29.3113L29.2934 29.2894L29.3153 29.2957Z"/>
<path fill-rule="evenodd" clip-rule="evenodd" d="M49.1845 78.9425L49.1902 78.9524L49.1792 78.9554L49.1845 78.9425Z"/>
<path fill-rule="evenodd" clip-rule="evenodd" d="M49.1802 121.041L49.1912 121.044L49.1855 121.054L49.1802 121.041Z"/>
<path fill-rule="evenodd" clip-rule="evenodd" d="M29.3018 170.686L29.3174 170.701L29.2955 170.708L29.3018 170.686Z"/>
<path fill-rule="evenodd" clip-rule="evenodd" d="M78.9466 150.816L78.9564 150.81L78.9595 150.821L78.9466 150.816Z"/>
<path fill-rule="evenodd" clip-rule="evenodd" d="M121.051 150.824L121.054 150.813L121.064 150.819L121.051 150.824Z"/>
<path fill-rule="evenodd" clip-rule="evenodd" d="M170.696 170.704L170.711 170.689L170.718 170.711L170.696 170.704Z"/>
<path fill-rule="evenodd" clip-rule="evenodd" d="M150.825 121.058L150.82 121.048L150.831 121.045L150.825 121.058Z"/>
<path fill-rule="evenodd" clip-rule="evenodd" d="M150.824 78.9555L150.813 78.9525L150.819 78.9426L150.824 78.9555Z"/>
<path fill-rule="evenodd" clip-rule="evenodd" d="M170.708 29.3113L170.693 29.2958L170.715 29.2894L170.708 29.3113Z"/>
<path fill-rule="evenodd" clip-rule="evenodd" d="M121.061 49.1816L121.052 49.1872L121.049 49.1763L121.061 49.1816Z"/>
<path fill-rule="evenodd" clip-rule="evenodd" d="M100.003 79.9998C111.041 79.9998 120.006 88.9613 120.006 99.9998C120.006 111.038 111.041 120 100.003 120C88.9657 120 80.0002 111.038 80.0002 99.9998C80.0002 88.9613 88.9657 79.9998 100.003 79.9998ZM100.003 90.0003C105.522 90.0003 110.005 94.481 110.005 99.9998C110.005 105.519 105.522 109.999 100.003 109.999C94.4845 109.999 90.0017 105.519 90.0017 99.9998C90.0017 94.481 94.4845 90.0003 100.003 90.0003Z"/>
<path fill-rule="evenodd" clip-rule="evenodd" d="M90.1112 50.98C90.8284 55.7984 94.9825 59.4992 100.003 59.4992C105.024 59.4992 109.178 55.7984 109.895 50.98C113.232 51.6504 116.45 52.6525 119.508 53.9515C117.476 62.8503 109.517 69.4997 100.003 69.4997C90.4898 69.4997 82.5305 62.8503 80.4983 53.9515C83.5665 52.6525 86.774 51.6504 90.1112 50.98Z"/>
<path fill-rule="evenodd" clip-rule="evenodd" d="M50.3745 93.8729C50.7933 90.4798 51.5471 87.1998 52.6032 84.0596C57.1356 85.8482 62.4184 84.1016 64.9288 79.7535C67.4341 75.4141 66.3131 69.9702 62.5116 66.9357C64.7315 64.4215 67.2013 62.1321 69.8839 60.1036C76.5733 66.3008 78.3412 76.5236 73.5895 84.7538C68.8378 92.984 59.0954 96.5614 50.3745 93.8729Z"/>
<path fill-rule="evenodd" clip-rule="evenodd" d="M52.604 115.949C51.5479 112.809 50.7941 109.529 50.3754 106.136C59.0963 103.447 68.8386 107.025 73.5903 115.255C78.342 123.485 76.5741 133.708 69.8847 139.905C67.2021 137.877 64.7324 135.587 62.5124 133.073C66.314 130.039 67.435 124.595 64.9296 120.255C62.4193 115.907 57.1364 114.161 52.604 115.949Z"/>
<path fill-rule="evenodd" clip-rule="evenodd" d="M109.891 149.02C109.174 144.202 105.02 140.501 99.9989 140.501C94.9782 140.501 90.8242 144.202 90.1069 149.02C86.7698 148.35 83.5522 147.347 80.494 146.048C82.5262 137.15 90.4855 130.5 99.9989 130.5C109.512 130.5 117.472 137.15 119.504 146.048C116.436 147.347 113.228 148.35 109.891 149.02Z"/>
<path fill-rule="evenodd" clip-rule="evenodd" d="M147.405 115.945C142.872 114.156 137.59 115.903 135.079 120.251C132.574 124.59 133.695 130.034 137.496 133.069C135.277 135.583 132.807 137.872 130.124 139.901C123.435 133.704 121.667 123.481 126.419 115.25C131.17 107.02 140.913 103.443 149.634 106.131C149.215 109.524 148.461 112.804 147.405 115.945Z"/>
<path fill-rule="evenodd" clip-rule="evenodd" d="M149.633 93.8693C140.912 96.5578 131.169 92.9804 126.418 84.7502C121.666 76.5199 123.434 66.2971 130.123 60.1C132.806 62.1285 135.276 64.4178 137.496 66.9321C133.694 69.9666 132.573 75.4105 135.078 79.7499C137.589 84.0979 142.872 85.8446 147.404 84.056C148.46 87.1962 149.214 90.4762 149.633 93.8693Z"/>
</g>
    <style>
        path { fill: #000; }
        @media (prefers-color-scheme: dark) {
            path { fill: #FFF; }
        }
    </style>
</svg>
