<svg width="64" height="64" viewBox="0 0 64 64" fill="none" xmlns="http://www.w3.org/2000/svg">
<path fill-rule="evenodd" clip-rule="evenodd" d="M48.0001 14.199V45.836C48.0001 47.877 46.4471 49.897 43.5271 51.46C40.6301 53.01 36.5571 54 32.0001 54C27.4431 54 23.3701 53.01 20.4731 51.46C17.5531 49.897 16.0001 47.877 16.0001 45.836V14.199C16.0171 16.229 17.5691 18.235 20.4731 19.788C23.3701 21.338 27.4431 22.329 32.0001 22.329C36.5571 22.329 40.6301 21.338 43.5271 19.788C46.4311 18.235 47.9831 16.229 48.0001 14.199ZM46.0001 14.199C45.9791 15.649 44.6621 16.913 42.5831 18.025C39.9251 19.447 36.1821 20.329 32.0001 20.329C27.8181 20.329 24.0751 19.447 21.4171 18.025C19.3381 16.913 18.0211 15.649 18.0001 14.199C18.0001 14.187 18.0001 14.176 18.0001 14.164C18.0001 12.7 19.3221 11.425 21.4171 10.304C24.0751 8.882 27.8181 8 32.0001 8C36.1821 8 39.9251 8.882 42.5831 10.304C44.6781 11.425 46.0001 12.7 46.0001 14.164C46.0001 14.176 46.0001 14.187 46.0001 14.199Z" fill="currentColor"/>
</svg>
