<svg width="64" height="64" viewBox="0 0 64 64" fill="none" xmlns="http://www.w3.org/2000/svg">
<path fill-rule="evenodd" clip-rule="evenodd" d="M15.9376 40.125L31.9996 8L48.0616 40.125C47.3226 39.446 46.4456 38.807 45.4346 38.222C42.0466 36.26 37.3016 35 31.9996 35C26.6976 35 21.9526 36.26 18.5646 38.222C17.5536 38.807 16.6766 39.447 15.9376 40.125ZM14.9996 46C14.9996 43.763 16.6606 41.635 19.5666 39.953C22.6996 38.139 27.0956 37 31.9996 37C36.9036 37 41.2996 38.139 44.4326 39.953C47.3386 41.635 48.9996 43.763 48.9996 46C48.9996 48.237 47.3386 50.365 44.4326 52.047C41.2996 53.861 36.9036 55 31.9996 55C27.0956 55 22.6996 53.861 19.5666 52.047C16.6606 50.365 14.9996 48.237 14.9996 46Z" fill="currentColor"/>
</svg>
