<svg width="64" height="64" viewBox="0 0 64 64" fill="none" xmlns="http://www.w3.org/2000/svg">
<path fill-rule="evenodd" clip-rule="evenodd" d="M27.3081 53.498C18.9291 51.675 12.3251 45.071 10.5021 36.692C10.7521 36.904 11.021 37.111 11.309 37.313C13.771 39.039 17.8081 40.461 22.7301 41.27C23.5391 46.192 24.9611 50.229 26.6871 52.691C26.8891 52.979 27.0961 53.248 27.3081 53.498Z" fill="currentColor"/>
<path fill-rule="evenodd" clip-rule="evenodd" d="M36.692 10.502C45.071 12.325 51.675 18.929 53.498 27.308C53.827 28.82 54 30.39 54 32C54 35.169 48.922 37.91 41.567 39.205C40.902 39.322 40.219 39.427 39.52 39.52C37.173 39.83 34.641 40 32 40C29.359 40 26.8271 39.83 24.4801 39.52C24.1701 37.173 24 34.641 24 32C24 29.359 24.1701 26.827 24.4801 24.48C24.5731 23.781 24.6781 23.098 24.7951 22.433C26.0901 15.078 28.831 10 32 10C33.61 10 35.18 10.173 36.692 10.502Z" fill="currentColor"/>
<path fill-rule="evenodd" clip-rule="evenodd" d="M53.498 36.692C51.675 45.071 45.071 51.675 36.692 53.498C35.18 53.827 33.61 54 32 54C28.831 54 26.0901 48.922 24.7951 41.567C27.0631 41.847 29.484 42 32 42C34.516 42 36.937 41.847 39.205 41.567C39.909 41.48 40.598 41.381 41.27 41.27C46.192 40.461 50.2291 39.039 52.6911 37.313C52.9791 37.111 53.248 36.904 53.498 36.692Z" fill="currentColor"/>
<path fill-rule="evenodd" clip-rule="evenodd" d="M10.5021 27.308C12.3251 18.929 18.9291 12.325 27.3081 10.502C27.0961 10.752 26.8891 11.021 26.6871 11.309C24.9611 13.771 23.5391 17.808 22.7301 22.7299C22.6191 23.4019 22.5201 24.091 22.4331 24.795C22.1531 27.063 22 29.484 22 32C22 34.516 22.1531 36.937 22.4331 39.205C15.0781 37.91 10 35.169 10 32C10 30.39 10.1731 28.82 10.5021 27.308Z" fill="currentColor"/>
</svg>
